<svg width="56" height="59" viewBox="0 0 56 59" xmlns="http://www.w3.org/2000/svg">
<g id="Group">
<path id="Vector" d="M15.9159 38.7446C15.9953 39.0282 16.1304 39.2936 16.3136 39.5256C16.4967 39.7575 16.7243 39.9516 16.9833 40.0966C17.2424 40.2417 17.5278 40.3349 17.8233 40.371C18.1187 40.407 18.4185 40.3852 18.7055 40.3067C18.9924 40.2283 19.2609 40.0948 19.4957 39.9138C19.7304 39.7328 19.9267 39.5078 20.0735 39.2518C20.2203 38.9959 20.3146 38.7138 20.3511 38.4218C20.3876 38.1298 20.3655 37.8335 20.2861 37.5499L15.9159 38.7446ZM2.90219 7.26368C2.61411 7.18052 2.31219 7.15473 2.01395 7.1878C1.71571 7.22086 1.42708 7.31214 1.16481 7.45632C0.902545 7.6005 0.67186 7.79471 0.486141 8.0277C0.300423 8.26068 0.163369 8.52779 0.0829317 8.81354C0.00249458 9.09928 -0.0197244 9.39797 0.0175641 9.69226C0.0548527 9.98656 0.150906 10.2706 0.300152 10.5279C0.449397 10.7853 0.648863 11.0107 0.886976 11.1913C1.12509 11.3718 1.39711 11.5038 1.68725 11.5796L2.90219 7.26368ZM54.244 40.1186C54.5391 40.0511 54.8176 39.9259 55.0629 39.7503C55.3083 39.5747 55.5155 39.3522 55.6724 39.0961C55.8293 38.84 55.9326 38.5554 55.9763 38.2592C56.02 37.9629 56.0032 37.661 55.9268 37.3713C55.8504 37.0816 55.7161 36.81 55.5317 36.5724C55.3473 36.3349 55.1166 36.1363 54.8532 35.9884C54.5898 35.8405 54.2991 35.7463 53.9982 35.7113C53.6974 35.6763 53.3925 35.7013 53.1016 35.7847L54.244 40.1186ZM24.0488 45.5964C24.9857 48.9416 22.9306 52.475 19.2918 53.4099L20.4312 57.7437C26.4061 56.2115 30.057 50.2707 28.4189 44.4016L24.0488 45.5964ZM19.2918 53.4099C15.6288 54.3507 11.9538 52.248 11.0109 48.8729L6.6407 50.0676C8.27271 55.9068 14.4804 59.273 20.4312 57.7437L19.2918 53.4099ZM11.0109 48.8729C10.074 45.5277 12.1291 41.9943 15.7679 41.0594L14.6285 36.7285C8.65351 38.2608 4.99962 44.1985 6.6407 50.0676L11.0109 48.8729ZM15.7679 41.0594C19.4308 40.1186 23.1058 42.2213 24.0488 45.5964L28.4189 44.4016C26.7869 38.5624 20.5793 35.1963 14.6285 36.7256L15.7679 41.0594ZM20.2861 37.5499L13.7822 14.2827L9.41209 15.4774L15.9159 38.7446L20.2861 37.5499ZM8.05208 8.67345L2.90219 7.26368L1.68725 11.5796L6.84017 12.9924L8.05208 8.67345ZM13.7822 14.2827C13.3988 12.9382 12.6694 11.7148 11.6652 10.7317C10.6609 9.7487 9.41614 9.03957 8.05208 8.67345L6.84621 12.9924C8.13066 13.3448 9.08569 14.3096 9.41209 15.4774L13.7822 14.2827ZM26.8081 47.1674L54.244 40.1186L53.1046 35.7847L25.6657 42.8336L26.8081 47.1674Z"/>
<path id="Vector_2" d="M20.2529 19.2251C18.7871 13.9833 18.0557 11.3609 19.3009 9.29699C20.543 7.23012 23.2782 6.52822 28.7484 5.12143L34.5511 3.634C40.0214 2.2302 42.7565 1.52532 44.9113 2.71705C47.0662 3.91178 47.8006 6.53121 49.2634 11.776L50.8198 17.3375C52.2856 22.5793 53.02 25.2017 51.7748 27.2686C50.5297 29.3325 47.7945 30.0374 42.3243 31.4412L36.5216 32.9316C31.0514 34.3354 28.3162 35.0373 26.1614 33.8456C24.0065 32.6508 23.2751 30.0314 21.8094 24.7896L20.2529 19.2251Z" stroke-width="3" fill="none"/>
</g>
</svg>
