<svg width="56" height="57" viewBox="0 0 56 57" xmlns="http://www.w3.org/2000/svg">
<path d="M20.6757 34.1583C20.2531 34.1574 19.8344 34.2398 19.4437 34.4007C19.053 34.5617 18.6977 34.798 18.3983 35.0963L13.3023 40.1946V49.8453H27.335L41.678 46.2589L50.407 42.5349C50.7308 42.358 50.9782 42.0683 51.1024 41.7209C51.2266 41.3735 51.2189 40.9926 51.0807 40.6505C50.9425 40.3084 50.6834 40.029 50.3527 39.8654C50.0221 39.7018 49.6428 39.6653 49.287 39.7629L49.2403 39.7769L33.4367 43.4099H24.6703V38.7433H32.2467C32.842 38.7243 33.4066 38.4744 33.821 38.0466C34.2355 37.6187 34.4672 37.0464 34.4672 36.4508C34.4672 35.8551 34.2355 35.2828 33.821 34.855C33.4066 34.4271 32.842 34.1773 32.2467 34.1583H20.6827H20.6757ZM39.1533 37.3083L48.104 35.2479C49.5788 34.8652 51.1429 35.041 52.4959 35.7417C53.8488 36.4423 54.8951 37.6183 55.4335 39.0437C55.9719 40.469 55.9644 42.043 55.4126 43.4632C54.8608 44.8833 53.8035 46.0494 52.444 46.7373L52.381 46.7676L43.169 50.6969L27.909 54.5119H0V36.8953H10.0007L15.1037 31.7923C15.8373 31.061 16.7078 30.4815 17.6655 30.0868C18.6231 29.692 19.6492 29.4898 20.685 29.4916H32.2467C33.2329 29.4917 34.2079 29.7014 35.107 30.1068C36.0061 30.5123 36.8088 31.1041 37.4618 31.8432C38.1149 32.5823 38.6034 33.4518 38.895 34.3939C39.1866 35.3361 39.2747 36.3295 39.1533 37.3083ZM8.63333 41.5596H4.66667V49.8453H8.63333V41.5596Z"/>
<path d="M31.3005 14.1756C28.3868 13.4413 27.4498 12.6822 27.4498 11.5C27.4498 10.1436 28.7462 9.19778 30.9155 9.19778C33.2002 9.19778 34.0473 10.2556 34.1244 11.8111H36.961C36.8712 9.67067 35.5234 7.70444 32.8408 7.06978V4.34444H28.9901V7.03244C26.5 7.55511 24.4976 9.12311 24.4976 11.5249C24.4976 14.3996 26.9492 15.8307 30.5304 16.6644C33.7393 17.4111 34.3811 18.5062 34.3811 19.6636C34.3811 20.5222 33.7521 21.8911 30.9155 21.8911C28.2713 21.8911 27.2316 20.7462 27.0904 19.2778H24.2666C24.4206 22.0031 26.5257 23.5338 28.9901 24.044V26.7444H32.8408V24.0689C35.3437 23.6084 37.3333 22.2022 37.3333 19.6511C37.3333 16.1169 34.2142 14.9098 31.3005 14.1756Z"/>
</svg>
