<svg width="56" height="48" viewBox="0 0 56 48" xmlns="http://www.w3.org/2000/svg">
<path d="M48.3636 12.2986H40.7273V0.486115H0V38.8767H5.09091C5.09091 43.7789 8.50182 47.7361 12.7273 47.7361C16.9527 47.7361 20.3636 43.7789 20.3636 38.8767H35.6364C35.6364 43.7789 39.0473 47.7361 43.2727 47.7361C47.4982 47.7361 50.9091 43.7789 50.9091 38.8767H56V24.1111L48.3636 12.2986ZM12.7273 43.3064C10.6145 43.3064 8.90909 41.3278 8.90909 38.8767C8.90909 36.4256 10.6145 34.4471 12.7273 34.4471C14.84 34.4471 16.5455 36.4256 16.5455 38.8767C16.5455 41.3278 14.84 43.3064 12.7273 43.3064ZM35.6364 9.34549H30.5455V30.0174H25.4545V9.34549H20.3636V30.0174H15.2727V9.34549H10.1818V30.0174H5.09091V6.39236H35.6364V9.34549ZM43.2727 43.3064C41.16 43.3064 39.4545 41.3278 39.4545 38.8767C39.4545 36.4256 41.16 34.4471 43.2727 34.4471C45.3855 34.4471 47.0909 36.4256 47.0909 38.8767C47.0909 41.3278 45.3855 43.3064 43.2727 43.3064ZM40.7273 24.1111V16.7283H47.0909L52.08 24.1111H40.7273Z" />
</svg>
