<svg width="24" height="24" viewBox="0 0 24 24" fill="none" xmlns="http://www.w3.org/2000/svg">
<g id="pajamas:check-sm">
<path id="Vector" fill-rule="evenodd" clip-rule="evenodd" d="M21.56 5.23995C21.8409 5.5212 21.9987 5.90245 21.9987 6.29995C21.9987 6.69745 21.8409 7.0787 21.56 7.35995L9.36605 19.554C9.22527 19.6946 9.05793 19.8058 8.87375 19.8811C8.68958 19.9565 8.49225 19.9944 8.29328 19.9927C8.0943 19.991 7.89764 19.9498 7.71476 19.8714C7.53188 19.793 7.36643 19.6789 7.22805 19.5359L2.42205 14.5679C2.14797 14.2816 1.99839 13.8983 2.00601 13.502C2.01364 13.1057 2.17783 12.7285 2.46272 12.4528C2.74761 12.1772 3.13003 12.0255 3.52639 12.031C3.92276 12.0364 4.30086 12.1986 4.57805 12.4819L8.32405 16.3539L19.44 5.23995C19.7213 4.95905 20.1025 4.80127 20.5 4.80127C20.8975 4.80127 21.2788 4.95905 21.56 5.23995Z" fill="#11BA24"/>
</g>
</svg>
