<svg width="32" height="32" viewBox="0 0 32 32" fill="none" xmlns="http://www.w3.org/2000/svg">
<path d="M10.25 15.5L14.1875 19.4375L20.75 11.5625M5 21.8V9.2C5 7.73 5 6.995 5.28612 6.43325C5.53812 5.93844 5.93844 5.53812 6.43325 5.28612C6.995 5 7.73 5 9.2 5H21.8C23.27 5 24.005 5 24.5654 5.28612C25.0602 5.53812 25.4619 5.93844 25.7139 6.43325C26 6.99369 26 7.72869 26 9.19606V21.8053C26 23.2726 26 24.0063 25.7139 24.5668C25.4617 25.0607 25.0597 25.4623 24.5654 25.7139C24.005 26 23.2713 26 21.8039 26H9.19606C7.72869 26 6.99369 26 6.43325 25.7139C5.93935 25.4622 5.53779 25.0607 5.28612 24.5668C5 24.005 5 23.27 5 21.8Z" stroke="#1B556D" stroke-width="3" stroke-linecap="round" stroke-linejoin="round"/>
</svg>
