<svg width="24" height="24" viewBox="0 0 24 24" fill="none" xmlns="http://www.w3.org/2000/svg">
<g id="Group">
<path id="Vector" d="M18.495 14.5015C16.66 14.4825 15.6365 14.6675 13.689 15.463L13.311 14.537C15.3745 13.6945 16.53 13.481 18.505 13.5015L18.495 14.5015ZM13.689 13.463C15.6365 12.668 16.6605 12.4825 18.495 12.5015L18.505 11.5015C16.53 11.481 15.375 11.6945 13.311 12.537L13.689 13.463ZM18.495 10.5015C16.66 10.4825 15.6365 10.6675 13.689 11.463L13.311 10.537C15.3745 9.6945 16.53 9.481 18.505 9.5015L18.495 10.5015ZM17.25 8V6.5H18.25V8H17.25ZM15.5 7V8.5H16.5V7H15.5ZM13.75 9V7.5H14.75V9H13.75ZM5.505 14.5015C7.34 14.4825 8.3635 14.6675 10.311 15.463L10.689 14.537C8.6255 13.6945 7.47 13.481 5.495 13.5015L5.505 14.5015ZM10.311 13.463C8.3635 12.668 7.34 12.4825 5.505 12.5015L5.495 11.5015C7.47 11.481 8.625 11.6945 10.689 12.537L10.311 13.463ZM5.505 10.5015C7.34 10.4825 8.3635 10.6675 10.311 11.463L10.689 10.537C8.6255 9.6945 7.47 9.481 5.495 9.5015L5.505 10.5015ZM6.75 8V6.5H5.75V8H6.75ZM8.5 7V8.5H7.5V7H8.5ZM10.25 9V7.5H9.25V9H10.25Z" fill="#FAFDFD"/>
<path id="Vector_2" fill-rule="evenodd" clip-rule="evenodd" d="M21 5.49195C21.203 5.53661 21.4102 5.58445 21.6215 5.63545C21.7296 5.66163 21.8258 5.72348 21.8945 5.81102C21.9631 5.89856 22.0003 6.00669 22 6.11795V18.8874C22 19.2039 21.7085 19.4399 21.398 19.3809C18.2915 18.7884 16.198 18.7469 13.337 19.1809C13.2115 19.4277 13.0202 19.6349 12.7842 19.7796C12.5482 19.9243 12.2768 20.0009 12 20.0009C11.7232 20.0009 11.4518 19.9243 11.2158 19.7796C10.9798 19.6349 10.7885 19.4277 10.663 19.1809C7.8025 18.7469 5.708 18.7884 2.602 19.3809C2.52902 19.3952 2.45379 19.3932 2.38168 19.3751C2.30957 19.3569 2.24235 19.323 2.18484 19.2759C2.12733 19.2288 2.08095 19.1695 2.04899 19.1023C2.01704 19.0352 2.00031 18.9618 2 18.8874V6.11845C1.99958 6.0071 2.0367 5.89886 2.10538 5.81122C2.17406 5.72358 2.27028 5.66165 2.3785 5.63545C2.58984 5.58445 2.797 5.53661 3 5.49195V5.26195C3 4.81945 3.2945 4.41495 3.742 4.30195C6.817 3.52895 9.056 4.34795 11.6205 5.54045C11.7455 5.56611 11.872 5.59278 12 5.62045C12.128 5.59278 12.2547 5.56611 12.38 5.54045C14.944 4.34795 17.183 3.52895 20.258 4.30245C20.471 4.35667 20.6598 4.48057 20.7942 4.65444C20.9287 4.82831 21.0011 5.04216 21 5.26195V5.49195ZM20 16.9839V5.26845C17.171 4.56095 15.1585 5.33595 12.5 6.58845V18.2094L12.5015 18.2104L12.5025 18.2109L12.507 18.2124H12.5085L12.5115 18.2114C14.966 17.1004 17.107 16.4699 19.973 16.9929C19.9771 16.9937 19.9813 16.9936 19.9853 16.9927C19.9894 16.9917 19.9932 16.9899 19.9965 16.9874L20 16.9839ZM11.4985 18.2104L11.5 18.2094V6.58845C8.8415 5.33645 6.829 4.56095 4 5.26845V16.9839L4.0035 16.9874C4.00685 16.9901 4.01072 16.992 4.01486 16.993C4.01899 16.9941 4.02331 16.9942 4.0275 16.9934C6.8925 16.4699 9.034 17.1004 11.4885 18.2109L11.4925 18.2124L11.4985 18.2104Z" fill="#FAFDFD"/>
</g>
</svg>
