<svg width="40" height="40" viewBox="0 0 40 40" fill="none" xmlns="http://www.w3.org/2000/svg">
<g id="jam:triangle-danger">
<path id="Vector" d="M24.4001 6.82251L36.1268 26.3543C37.8121 29.1596 36.9844 32.8503 34.2771 34.5968C33.3685 35.1852 32.3093 35.4987 31.2268 35.4998H7.77152C4.58476 35.4998 2 32.8223 2 29.5166C2 28.3983 2.30275 27.3046 2.8715 26.3543L14.6 6.82251C16.2835 4.01725 19.8431 3.158 22.5503 4.9045C23.2993 5.38751 23.9328 6.04376 24.4001 6.82251ZM20.5151 8.29076C20.3008 8.15296 20.0609 8.06002 19.8097 8.01755C19.5585 7.97508 19.3014 7.98396 19.0537 8.04366C18.8061 8.10336 18.5731 8.21264 18.3689 8.3649C18.1647 8.51716 17.9935 8.70923 17.8655 8.92952L6.13876 28.4648C5.94827 28.7832 5.84786 29.1473 5.84826 29.5183C5.84826 30.6208 6.70926 31.5133 7.77327 31.5133H31.2251C31.5856 31.5133 31.9373 31.4083 32.2418 31.2123C32.6788 30.922 32.9869 30.4743 33.102 29.9625C33.217 29.4507 33.1302 28.9142 32.8596 28.4648L21.1328 8.92952C20.979 8.67231 20.7683 8.45379 20.5168 8.29076H20.5151ZM19.5 28.4998C19.0359 28.4998 18.5908 28.3154 18.2626 27.9873C17.9344 27.6591 17.75 27.2139 17.75 26.7498C17.75 26.2857 17.9344 25.8406 18.2626 25.5124C18.5908 25.1842 19.0359 24.9998 19.5 24.9998C19.9642 24.9998 20.4093 25.1842 20.7375 25.5124C21.0657 25.8406 21.2501 26.2857 21.2501 26.7498C21.2501 27.2139 21.0657 27.6591 20.7375 27.9873C20.4093 28.3154 19.9642 28.4998 19.5 28.4998ZM19.5 12.7498C19.9642 12.7498 20.4093 12.9342 20.7375 13.2623C21.0657 13.5905 21.2501 14.0357 21.2501 14.4998V21.4998C21.2501 21.9639 21.0657 22.4091 20.7375 22.7372C20.4093 23.0654 19.9642 23.2498 19.5 23.2498C19.0359 23.2498 18.5908 23.0654 18.2626 22.7372C17.9344 22.4091 17.75 21.9639 17.75 21.4998V14.4998C17.75 14.0357 17.9344 13.5905 18.2626 13.2623C18.5908 12.9342 19.0359 12.7498 19.5 12.7498Z" fill="#1A556D"/>
</g>
</svg>
