<svg width="24" height="24" viewBox="0 0 24 24" fill="none" xmlns="http://www.w3.org/2000/svg">
<g id="healthicons:truck-driver" clip-path="url(#clip0_978_5987)">
<g id="Group">
<path id="Vector" fill-rule="evenodd" clip-rule="evenodd" d="M4.09755 3.80513C4.09755 3.54932 6.74106 1.75635 9.36584 1.75635C11.9906 1.75635 14.6341 3.54932 14.6341 3.80513C14.6341 4.7183 14.537 5.25918 14.455 5.55362C14.4006 5.74679 14.2197 5.85391 14.0189 5.85391H4.71277C4.51199 5.85391 4.33111 5.74679 4.27667 5.55362C4.19472 5.25918 4.09755 4.7183 4.09755 3.80513ZM8.48779 3.51245C8.33254 3.51245 8.18365 3.57412 8.07387 3.68389C7.9641 3.79367 7.90242 3.94256 7.90242 4.09781C7.90242 4.25306 7.9641 4.40195 8.07387 4.51173C8.18365 4.6215 8.33254 4.68318 8.48779 4.68318H10.2439C10.3991 4.68318 10.548 4.6215 10.6578 4.51173C10.7676 4.40195 10.8293 4.25306 10.8293 4.09781C10.8293 3.94256 10.7676 3.79367 10.6578 3.68389C10.548 3.57412 10.3991 3.51245 10.2439 3.51245H8.48779ZM4.70516 9.49371C2.75589 8.89079 3.2476 7.81371 3.99101 7.02464H14.9034C15.4981 7.78444 15.8172 8.80942 14.0195 9.42288C14.039 9.59654 14.0488 9.77274 14.0488 9.95147C14.0485 10.5856 13.9195 11.213 13.6695 11.7958C13.4195 12.3785 13.0538 12.9044 12.5945 13.3416C12.1352 13.7788 11.5918 14.1182 10.9975 14.3391C10.4031 14.56 9.77004 14.6579 9.13669 14.6269C8.50334 14.5959 7.88289 14.4366 7.31296 14.1586C6.74303 13.8806 6.23549 13.4898 5.82112 13.0098C5.40674 12.5298 5.09416 11.9707 4.90234 11.3663C4.71051 10.7619 4.64343 10.1248 4.70516 9.49371ZM9.20662 9.95147C10.7532 9.95147 11.952 9.86952 12.871 9.72669C12.8757 9.80083 12.878 9.87576 12.878 9.95147C12.8776 10.4202 12.7834 10.8841 12.6009 11.3158C12.4184 11.7476 12.1513 12.1384 11.8154 12.4653C11.4795 12.7922 11.0815 13.0486 10.645 13.2193C10.2085 13.39 9.74218 13.4717 9.27362 13.4593C8.80505 13.447 8.34369 13.3411 7.91672 13.1477C7.48974 12.9543 7.1058 12.6774 6.78752 12.3333C6.46924 11.9892 6.22305 11.5848 6.06347 11.1441C5.90388 10.7034 5.83413 10.2352 5.85833 9.76708C6.71472 9.88532 7.81228 9.95147 9.20662 9.95147ZM14.2929 18.4978C13.7635 17.6717 13.0347 16.992 12.1737 16.5215C11.3126 16.0509 10.3471 15.8046 9.36584 15.8051C8.38422 15.8044 7.4182 16.0508 6.55684 16.5215C5.69548 16.9923 4.96649 17.6724 4.43706 18.499C4.24013 18.1967 3.93849 17.9778 3.59003 17.8843L2.45911 17.5817C2.08426 17.4812 1.68485 17.5337 1.34872 17.7277C1.01259 17.9217 0.767267 18.2412 0.666717 18.6161L0.212473 20.3124C0.162724 20.4981 0.150031 20.6917 0.175118 20.8823C0.200205 21.0728 0.262582 21.2566 0.358686 21.423C0.45479 21.5894 0.582738 21.7353 0.735224 21.8523C0.887711 21.9693 1.06175 22.0551 1.2474 22.1048L2.37774 22.4081C2.5679 22.459 2.76638 22.4711 2.96131 22.4435C3.15624 22.4159 3.3436 22.3493 3.51218 22.2477C3.51265 22.4029 3.57477 22.5516 3.68487 22.6611C3.79498 22.7705 3.94405 22.8317 4.0993 22.8313C4.25455 22.8308 4.40326 22.7687 4.51271 22.6586C4.62215 22.5485 4.68338 22.3994 4.68291 22.2442V21.6588C4.68291 21.4356 4.69813 21.2164 4.72857 21.0014L7.77482 21.818C7.91622 22.1207 8.14102 22.3767 8.42283 22.5561C8.70464 22.7355 9.03178 22.8308 9.36584 22.8308C9.6999 22.8308 10.027 22.7355 10.3089 22.5561C10.5907 22.3767 10.8155 22.1207 10.9569 21.818L14.0031 21.0014C14.0332 21.2164 14.0484 21.4356 14.0488 21.6588V22.2442C14.048 22.3994 14.1089 22.5486 14.2181 22.6589C14.3274 22.7693 14.476 22.8317 14.6312 22.8324C14.7865 22.8332 14.9357 22.7723 15.046 22.6631C15.1563 22.5538 15.2187 22.4053 15.2195 22.25C15.5473 22.4467 15.9524 22.5152 16.351 22.4081L17.4819 22.1054C17.6676 22.0557 17.8416 21.9699 17.9941 21.8529C18.1466 21.7359 18.2745 21.59 18.3707 21.4236C18.4668 21.2571 18.5291 21.0734 18.5542 20.8829C18.5793 20.6923 18.5666 20.4987 18.5169 20.313L18.062 18.6166C17.9615 18.2418 17.7162 17.9223 17.38 17.7283C17.0439 17.5343 16.6445 17.4818 16.2696 17.5823L15.1387 17.8849C14.7911 17.9781 14.4899 18.1966 14.2929 18.4978ZM5.03589 19.8711C5.35228 19.1065 5.86536 18.4393 6.52304 17.9372C7.18072 17.435 7.95956 17.1159 8.78047 17.0122V19.4174C8.51797 19.5102 8.28129 19.664 8.08995 19.8663C7.89861 20.0685 7.75809 20.3133 7.67999 20.5805L5.03589 19.8711ZM13.6958 19.8711C13.3794 19.1065 12.8663 18.4393 12.2086 17.9372C11.551 17.435 10.7721 17.1159 9.95121 17.0122V19.4174C10.4804 19.6047 10.8936 20.0379 11.0517 20.5805L13.6958 19.8711ZM9.36584 21.6588C9.52109 21.6588 9.66998 21.5971 9.77976 21.4873C9.88953 21.3776 9.95121 21.2287 9.95121 21.0734C9.95121 20.9182 9.88953 20.7693 9.77976 20.6595C9.66998 20.5497 9.52109 20.4881 9.36584 20.4881C9.21059 20.4881 9.0617 20.5497 8.95192 20.6595C8.84215 20.7693 8.78047 20.9182 8.78047 21.0734C8.78047 21.2287 8.84215 21.3776 8.95192 21.4873C9.0617 21.5971 9.21059 21.6588 9.36584 21.6588Z" fill="#FAFDFD"/>
</g>
<path id="Vector_2" d="M24.0001 6.43879H20.4879V9.95098H19.3171V6.43879H15.8049V5.26805H19.3171V1.75586H20.4879V5.26805H24.0001V6.43879Z" fill="#FAFDFD"/>
</g>
<defs>
<clipPath id="clip0_978_5987">
<rect width="24" height="24" fill="white"/>
</clipPath>
</defs>
</svg>
