<svg width="24" height="24" viewBox="0 0 24 24" fill="none" xmlns="http://www.w3.org/2000/svg">
<path d="M8.861 14.377C8.67989 14.3766 8.50048 14.4119 8.33301 14.4809C8.16555 14.5499 8.01332 14.6512 7.885 14.779L5.701 16.964V21.1H11.715L17.862 19.563L21.603 17.967C21.7418 17.8912 21.8478 17.767 21.901 17.6181C21.9543 17.4692 21.951 17.306 21.8917 17.1594C21.8325 17.0128 21.7215 16.893 21.5797 16.8229C21.438 16.7528 21.2755 16.7372 21.123 16.779L21.103 16.785L14.33 18.342H10.573V16.342H13.82C14.0751 16.3339 14.3171 16.2268 14.4947 16.0434C14.6723 15.8601 14.7717 15.6148 14.7717 15.3595C14.7717 15.1042 14.6723 14.859 14.4947 14.6756C14.3171 14.4922 14.0751 14.3851 13.82 14.377H8.864H8.861ZM16.78 15.727L20.616 14.844C21.248 14.68 21.9184 14.7553 22.4982 15.0556C23.0781 15.3559 23.5265 15.8599 23.7572 16.4707C23.9879 17.0816 23.9848 17.7562 23.7483 18.3648C23.5118 18.9735 23.0586 19.4732 22.476 19.768L22.449 19.781L18.501 21.465L11.961 23.1H0V15.55H4.286L6.473 13.363C6.78742 13.0496 7.1605 12.8013 7.57092 12.6321C7.98135 12.4629 8.42108 12.3762 8.865 12.377H13.82C14.2427 12.3771 14.6605 12.4669 15.0459 12.6407C15.4312 12.8144 15.7752 13.0681 16.0551 13.3848C16.3349 13.7016 16.5443 14.0742 16.6693 14.478C16.7943 14.8818 16.832 15.3075 16.78 15.727ZM3.7 17.549H2V21.1H3.7V17.549Z" fill="#FAFDFD"/>
<path d="M13.4146 5.81334C12.1658 5.49867 11.7643 5.17334 11.7643 4.66667C11.7643 4.08534 12.3199 3.68001 13.2495 3.68001C14.2287 3.68001 14.5918 4.13334 14.6248 4.80001H15.8405C15.802 3.88267 15.2244 3.04001 14.0747 2.76801V1.60001H12.4244V2.75201C11.3572 2.97601 10.499 3.64801 10.499 4.67734C10.499 5.90934 11.5497 6.52267 13.0845 6.88001C14.4597 7.20001 14.7348 7.66934 14.7348 8.16534C14.7348 8.53334 14.4653 9.12001 13.2495 9.12001C12.1163 9.12001 11.6708 8.62934 11.6102 8.00001H10.4C10.466 9.16801 11.3682 9.82401 12.4244 10.0427V11.2H14.0747V10.0533C15.1474 9.85601 16 9.25334 16 8.16001C16 6.64534 14.6633 6.12801 13.4146 5.81334Z" fill="#FAFDFD"/>
</svg>
