<svg width="56" height="57" viewBox="0 0 56 57" xmlns="http://www.w3.org/2000/svg">
<g clip-path="url(#clip0_735_10558)">
<path d="M11.76 18.5311C5.29704 18.5311 0 23.8119 0 30.2575C0 32.7551 0.79744 35.0763 2.1476 36.9842L10.3253 51.1209C11.4705 52.6172 12.2321 52.3333 13.1846 51.0425L22.204 35.6929C22.386 35.3625 22.5288 35.0119 22.6537 34.6535C23.226 33.2586 23.5203 31.7653 23.52 30.2575C23.52 23.8119 18.2246 18.5311 11.76 18.5311ZM11.76 24.0258C15.241 24.0258 18.0096 26.7872 18.0096 30.2581C18.0096 33.729 15.241 36.4892 11.76 36.4892C8.2796 36.4892 5.5104 33.7284 5.5104 30.2581C5.5104 26.7872 8.2796 24.0258 11.76 24.0258ZM49.14 0.611115C45.3701 0.611115 42.28 3.69167 42.28 7.45207C42.28 8.90863 42.7448 10.2627 43.5327 11.3754L48.3034 19.622C48.9714 20.4945 49.4155 20.3287 49.971 19.5761L55.2322 10.6217C55.3386 10.4296 55.4221 10.2252 55.4943 10.0158C55.8283 9.20231 56.0001 8.33142 56 7.45207C56 3.69111 52.911 0.611115 49.14 0.611115ZM49.14 3.81655C51.1706 3.81655 52.7856 5.42711 52.7856 7.45207C52.7856 9.47647 51.1706 11.0865 49.14 11.0865C47.11 11.0865 45.4944 9.47647 45.4944 7.45207C45.4944 5.42711 47.11 3.81655 49.14 3.81655Z"/>
<path fill-rule="evenodd" clip-rule="evenodd" d="M49.3975 21.5618C48.1392 21.5898 46.8775 21.643 45.6136 21.7366L45.8085 24.8345C47.0226 24.7465 48.2387 24.69 49.4557 24.6648L49.3975 21.5618ZM42.6915 22.021C40.7483 22.2624 38.7883 22.6062 36.8507 23.159L37.5804 26.1611C39.341 25.6594 41.1655 25.3351 43.0185 25.105L42.6915 22.021ZM33.9493 24.1983C33.3688 24.4546 32.8067 24.7508 32.2671 25.0848L32.2649 25.0876L32.2615 25.0887C31.4915 25.5737 30.6801 26.1891 30.0176 27.0834C29.5377 27.7314 29.1451 28.5506 29.0533 29.5194L31.9065 29.8358C31.9277 29.6085 32.0442 29.3083 32.2537 29.0261H32.2548V29.025C32.5925 28.568 33.0987 28.153 33.7007 27.7734L33.7029 27.7722C34.132 27.5074 34.5789 27.2724 35.0402 27.0689L33.9493 24.1983ZM32.4805 31.2179L30.6308 33.5895C31.0693 33.9905 31.529 34.2985 31.9731 34.5561L31.9787 34.5589L31.9843 34.5622C33.4582 35.4006 34.9781 35.8738 36.387 36.3229L37.1968 33.3448C35.7884 32.8957 34.4606 32.4622 33.3227 31.816C32.9968 31.6267 32.7112 31.429 32.4805 31.2179ZM39.9481 34.1826L39.1573 37.1657L39.5314 37.2822L39.9906 37.4289C41.5105 37.9234 42.9665 38.4514 44.2679 39.1822L45.5884 36.427C44.0148 35.5428 42.3813 34.9649 40.8071 34.453L40.8026 34.4519L40.3311 34.3013L39.9481 34.1826ZM48.2736 38.4946L46.2447 40.6898C46.7241 41.2089 47.083 41.8333 47.2577 42.4784L47.2589 42.4818L47.26 42.4868C47.4683 43.24 47.4689 44.1259 47.3059 45.0208L50.1193 45.6211C50.3489 44.3578 50.3859 42.9706 50.0085 41.6014C49.6797 40.3907 49.0525 39.339 48.2736 38.4946ZM46.3237 46.8912C46.0136 47.2186 45.671 47.5136 45.3011 47.7715H45.3C44.292 48.4805 43.1227 49.0147 41.8806 49.4739L42.8069 52.4106C44.1654 51.9082 45.5604 51.2922 46.8641 50.375L46.8674 50.3722L46.8691 50.371C47.4045 49.9962 47.8997 49.567 48.3469 49.0903L46.3237 46.8912ZM39.2453 50.301C37.446 50.7849 35.6069 51.1534 33.7455 51.4658L34.1845 54.5341C36.1003 54.2121 38.0239 53.8274 39.9357 53.3133L39.2453 50.301ZM30.9449 51.8892C29.0712 52.1451 27.1873 52.354 25.2979 52.5321L25.5454 55.6244C27.464 55.4441 29.3859 55.2318 31.305 54.9692L30.9449 51.8892ZM22.4581 52.7757C20.5648 52.9258 18.6669 53.0478 16.7674 53.1509L16.9108 56.251C18.8288 56.1474 20.7485 56.0237 22.6676 55.8714L22.4581 52.7757ZM13.9131 53.2909C12.7746 53.3441 11.6333 53.3878 10.4893 53.4281L10.5833 56.531C11.7346 56.4915 12.8856 56.4455 14.0363 56.3933L13.9131 53.2909Z"/>
</g>
<defs>
<clipPath id="clip0_735_10558">
<rect width="56" height="56" fill="white" transform="translate(0 0.611115)"/>
</clipPath>
</defs>
</svg>
