<svg width="24" height="24" viewBox="0 0 24 24" fill="none" xmlns="http://www.w3.org/2000/svg">
<g id="el:off">
<path id="Vector" d="M10.1656 1.6001V13.1663H13.0343V1.6001H10.1656ZM4.52844 4.52856C2.71879 6.33821 1.59998 8.83866 1.59998 11.6001C1.59998 17.1229 6.07713 21.6001 11.6 21.6001C17.1228 21.6001 21.6 17.1229 21.6 11.6001C21.6 8.83866 20.4811 6.33821 18.6715 4.52856L16.6573 6.54273C17.9517 7.83703 18.7521 9.62527 18.7521 11.6001C18.7521 15.5498 15.5496 18.7522 11.6 18.7522C7.65029 18.7522 4.44788 15.5498 4.44788 11.6001C4.44788 9.62527 5.24829 7.83703 6.54261 6.54273L4.52844 4.52856Z" fill="#FAFDFD"/>
</g>
</svg>
