<svg width="40" height="41" viewBox="0 0 40 41" fill="none" xmlns="http://www.w3.org/2000/svg">
<g id="logos:whatsapp-icon" clip-path="url(#clip0_1070_9635)">
<path id="Vector" d="M0.858162 20.2608C0.857225 23.6216 1.742 26.9031 3.42439 29.7955L0.697266 39.678L10.8872 37.0262C13.7056 38.549 16.8634 39.3469 20.0723 39.3472H20.0808C30.6742 39.3472 39.2975 30.7917 39.302 20.2759C39.304 15.1802 37.3064 10.3886 33.677 6.78361C30.0483 3.17896 25.2221 1.19276 20.08 1.19043C9.48535 1.19043 0.862692 9.74547 0.858319 20.2608" fill="url(#paint0_linear_1070_9635)"/>
<path id="Vector_2" d="M0.172028 20.2544C0.170934 23.7361 1.08742 27.135 2.82979 30.131L0.00488281 40.3678L10.5602 37.6209C13.4685 39.1947 16.743 40.0245 20.0749 40.0257H20.0835C31.057 40.0257 39.99 31.1625 39.9947 20.2702C39.9966 14.9915 37.9271 10.0276 34.1681 6.29349C30.4086 2.55984 25.4098 0.502171 20.0835 0.5C9.1082 0.5 0.176402 9.36202 0.172028 20.2544ZM6.45809 29.615L6.06397 28.9941C4.4072 26.3795 3.53274 23.3581 3.53399 20.2557C3.53742 11.2022 10.9612 3.83643 20.0898 3.83643C24.5105 3.83829 28.6651 5.54868 31.7899 8.65194C34.9146 11.7555 36.634 15.8811 36.6329 20.269C36.6289 29.3225 29.205 36.6891 20.0835 36.6891H20.077C17.1069 36.6876 14.1941 35.896 11.6538 34.4L11.0493 34.0442L4.78554 35.6741L6.45809 29.615Z" fill="url(#paint1_linear_1070_9635)"/>
<path id="Vector_3" d="M15.1067 11.9955C14.734 11.1734 14.3417 11.1568 13.9873 11.1423C13.6971 11.1299 13.3653 11.1309 13.0338 11.1309C12.702 11.1309 12.1629 11.2548 11.7073 11.7485C11.2511 12.2428 9.96582 13.4372 9.96582 15.8665C9.96582 18.2958 11.7486 20.6437 11.9972 20.9735C12.246 21.3027 15.439 26.4475 20.4958 28.4267C24.6985 30.0715 25.5537 29.7444 26.4658 29.6619C27.3781 29.5797 29.4095 28.4678 29.8239 27.3148C30.2386 26.1619 30.2386 25.1737 30.1143 24.9672C29.99 24.7614 29.6582 24.6379 29.1606 24.391C28.6631 24.1442 26.217 22.9495 25.761 22.7847C25.3049 22.62 24.9733 22.5379 24.6415 23.0323C24.3097 23.5259 23.357 24.6379 23.0666 24.9672C22.7765 25.2972 22.4861 25.3383 21.9887 25.0913C21.4909 24.8436 19.8886 24.3228 17.9877 22.6408C16.5087 21.332 15.5102 19.7157 15.22 19.2213C14.9297 18.7276 15.1889 18.46 15.4383 18.214C15.6619 17.9927 15.936 17.6374 16.185 17.3492C16.4331 17.0608 16.5159 16.8551 16.6818 16.5258C16.8478 16.1961 16.7647 15.9078 16.6405 15.6608C16.5159 15.4138 15.5491 12.9718 15.1067 11.9955Z" fill="white"/>
</g>
<defs>
<linearGradient id="paint0_linear_1070_9635" x1="1930.93" y1="3849.95" x2="1930.93" y2="1.19043" gradientUnits="userSpaceOnUse">
<stop stop-color="#1FAF38"/>
<stop offset="1" stop-color="#60D669"/>
</linearGradient>
<linearGradient id="paint1_linear_1070_9635" x1="1999.5" y1="3987.28" x2="1999.5" y2="0.5" gradientUnits="userSpaceOnUse">
<stop stop-color="#F9F9F9"/>
<stop offset="1" stop-color="white"/>
</linearGradient>
<clipPath id="clip0_1070_9635">
<rect width="40" height="40" fill="white" transform="translate(0 0.5)"/>
</clipPath>
</defs>
</svg>
