<svg width="32" height="32" viewBox="0 0 32 32" fill="none" xmlns="http://www.w3.org/2000/svg">
<g id="healthicons:magnifying-glass">
<g id="Group">
<path id="Vector" d="M12.4987 8.54368C11.3387 8.58835 10.29 9.00235 9.72932 9.56368C9.66738 9.62558 9.59386 9.67467 9.51294 9.70815C9.43203 9.74163 9.34532 9.75885 9.25775 9.75881C9.17019 9.75878 9.08348 9.74151 9.0026 9.70797C8.92171 9.67443 8.84822 9.62529 8.78632 9.56335C8.72442 9.50141 8.67533 9.42788 8.64185 9.34697C8.60837 9.26606 8.59116 9.17934 8.59119 9.09178C8.59122 9.00421 8.6085 8.91751 8.64203 8.83662C8.67557 8.75573 8.72471 8.68224 8.78665 8.62035C9.65132 7.75568 11.0593 7.26501 12.4467 7.21101C13.8433 7.15701 15.368 7.53901 16.436 8.60701C16.561 8.73211 16.6312 8.90174 16.6311 9.07858C16.6311 9.25543 16.5607 9.42501 16.4357 9.55001C16.3106 9.67502 16.1409 9.74521 15.9641 9.74515C15.7872 9.74509 15.6177 9.67477 15.4927 9.54968C14.766 8.82235 13.65 8.49835 12.4987 8.54301" fill="#0D0D0D"/>
<path id="Vector_2" fill-rule="evenodd" clip-rule="evenodd" d="M19.2907 18.256C20.6125 16.6939 21.3365 14.713 21.3333 12.6667C21.3333 7.88 17.4533 4 12.6667 4C7.88 4 4 7.88 4 12.6667C4 17.4533 7.88 21.3333 12.6667 21.3333C14.7967 21.3333 16.7467 20.5653 18.256 19.2907L18 20.7627L23.0093 25.772L25.772 23.0093L20.7627 18L19.2907 18.256ZM12.6667 19.3333C16.3487 19.3333 19.3333 16.3487 19.3333 12.6667C19.3333 8.98467 16.3487 6 12.6667 6C8.98467 6 6 8.98467 6 12.6667C6 16.3487 8.98467 19.3333 12.6667 19.3333Z" fill="#0D0D0D"/>
<path id="Vector_3" d="M23.952 26.7148L26.7147 23.9521L27.6187 24.8561C28.1274 25.3648 28.1274 26.1895 27.6187 26.6975L26.6974 27.6188C26.1887 28.1275 25.364 28.1275 24.856 27.6188L23.952 26.7148Z" fill="#0D0D0D"/>
</g>
</g>
</svg>
