<svg width="16" height="17" viewBox="0 0 16 17" fill="none" xmlns="http://www.w3.org/2000/svg">
<g id="gravity-ui:magnifier">
<g id="Group 277">
<path id="Vector" fill-rule="evenodd" clip-rule="evenodd" d="M11.4994 7.87441C11.4994 8.46536 11.383 9.05052 11.1569 9.59648C10.9307 10.1424 10.5993 10.6385 10.1814 11.0564C9.76353 11.4743 9.26745 11.8057 8.72148 12.0319C8.17552 12.258 7.59036 12.3744 6.99941 12.3744C6.40846 12.3744 5.8233 12.258 5.27733 12.0319C4.73137 11.8057 4.23529 11.4743 3.81743 11.0564C3.39956 10.6385 3.0681 10.1424 2.84195 9.59648C2.6158 9.05052 2.49941 8.46536 2.49941 7.87441C2.49941 6.68093 2.97351 5.53634 3.81743 4.69243C4.66134 3.84851 5.80593 3.37441 6.99941 3.37441C8.19288 3.37441 9.33747 3.84851 10.1814 4.69243C11.0253 5.53634 11.4994 6.68093 11.4994 7.87441ZM10.6794 12.6144C9.47379 13.5504 7.95678 13.9917 6.43721 13.8485C4.91764 13.7054 3.50975 12.9885 2.50016 11.8438C1.49056 10.6991 0.95516 9.21271 1.00294 7.68716C1.05073 6.16161 1.67811 4.71162 2.75736 3.63236C3.83662 2.55311 5.28661 1.92573 6.81216 1.87794C8.33771 1.83016 9.82412 2.36556 10.9688 3.37516C12.1135 4.38475 12.8304 5.79264 12.9735 7.31221C13.1167 8.83178 12.6754 10.3488 11.7394 11.5544L14.5294 14.3444C14.6031 14.4131 14.6622 14.4959 14.7032 14.5879C14.7442 14.6799 14.7662 14.7792 14.768 14.8799C14.7698 14.9806 14.7513 15.0806 14.7135 15.174C14.6758 15.2674 14.6197 15.3522 14.5484 15.4234C14.4772 15.4947 14.3924 15.5508 14.299 15.5885C14.2056 15.6263 14.1056 15.6448 14.0049 15.643C13.9042 15.6412 13.8049 15.6192 13.7129 15.5782C13.6209 15.5372 13.5381 15.4781 13.4694 15.4044L10.6794 12.6144Z" fill="black"/>
</g>
</g>
</svg>
