<svg width="40" height="40" viewBox="0 0 40 40" fill="none" xmlns="http://www.w3.org/2000/svg">
<g id="tdesign:attach">
<path id="Vector" d="M18.8569 5.203C19.6271 4.41313 20.5465 3.78405 21.5617 3.35226C22.5769 2.92048 23.6678 2.69458 24.771 2.68766C25.8742 2.68075 26.9678 2.89297 27.9884 3.312C29.0089 3.73103 29.9361 4.34853 30.7162 5.12869C31.4962 5.90885 32.1136 6.83614 32.5325 7.85676C32.9514 8.87738 33.1634 9.97101 33.1564 11.0742C33.1493 12.1774 32.9233 13.2683 32.4913 14.2834C32.0594 15.2986 31.4302 16.2179 30.6402 16.988L17.6785 29.9513C17.2157 30.4219 16.6643 30.7961 16.0561 31.0525C15.4478 31.3089 14.7949 31.4423 14.1349 31.4451C13.4748 31.4478 12.8208 31.3199 12.2105 31.0686C11.6001 30.8174 11.0456 30.4477 10.5788 29.9811C10.112 29.5144 9.74227 28.96 9.49086 28.3497C9.23944 27.7394 9.11135 27.0854 9.11396 26.4254C9.11657 25.7653 9.24983 25.1123 9.50606 24.5041C9.7623 23.8958 10.1364 23.3443 10.6069 22.8813L23.5702 9.918L25.9269 12.2747L12.9635 25.238C12.8044 25.3917 12.6774 25.5757 12.59 25.779C12.5027 25.9823 12.4567 26.201 12.4548 26.4223C12.4529 26.6436 12.495 26.8631 12.5788 27.0679C12.6626 27.2728 12.7864 27.4588 12.9429 27.6153C13.0994 27.7718 13.2855 27.8956 13.4903 27.9794C13.6951 28.0632 13.9146 28.1053 14.1359 28.1034C14.3572 28.1015 14.5759 28.0555 14.7792 27.9682C14.9826 27.8808 15.1665 27.7539 15.3202 27.5947L28.2852 14.6313C28.7495 14.167 29.1179 13.6158 29.3692 13.0091C29.6205 12.4024 29.7498 11.7522 29.7498 11.0955C29.7498 10.4388 29.6205 9.7886 29.3692 9.18192C29.1179 8.57524 28.7495 8.024 28.2852 7.55967C27.8209 7.09534 27.2696 6.72701 26.6629 6.47571C26.0563 6.22442 25.406 6.09508 24.7494 6.09508C24.0927 6.09508 23.4425 6.22442 22.8358 6.47571C22.2291 6.72701 21.6779 7.09534 21.2135 7.55967L8.2502 20.5247C6.73222 22.0964 5.89227 24.2014 5.91125 26.3863C5.93024 28.5713 6.80665 30.6614 8.35172 32.2065C9.89678 33.7516 11.9869 34.628 14.1719 34.6469C16.3568 34.6659 18.4619 33.826 20.0335 32.308L34.1769 18.1663L36.5335 20.5247L22.3919 34.6663C20.2038 36.8544 17.2362 38.0836 14.1419 38.0836C11.0475 38.0836 8.07991 36.8544 5.89187 34.6663C3.70384 32.4783 2.47461 29.5107 2.47461 26.4163C2.47461 23.322 3.70384 20.3544 5.89187 18.1663L18.8569 5.203Z" fill="#1A556D"/>
</g>
</svg>
