<svg width="24" height="24" viewBox="0 0 24 24" fill="none" xmlns="http://www.w3.org/2000/svg">
<g id="clarity:pencil-solid" clip-path="url(#clip0_1577_13797)">
<path id="Vector" d="M2.8135 15.4669L1.54683 20.9336C1.50314 21.1334 1.50464 21.3405 1.55122 21.5397C1.5978 21.7389 1.68829 21.9251 1.81608 22.0849C1.94386 22.2446 2.10572 22.3738 2.28982 22.4629C2.47392 22.5521 2.67561 22.599 2.88017 22.6003C2.97545 22.6106 3.07156 22.6106 3.16683 22.6003L8.66683 21.3336L19.2268 10.8136L13.3335 4.93359L2.8135 15.4669Z" fill="#1A556D"/>
<path id="Vector_2" d="M22.5466 5.546L18.6133 1.61266C18.3547 1.35537 18.0048 1.21094 17.64 1.21094C17.2752 1.21094 16.9252 1.35537 16.6666 1.61266L14.48 3.79933L20.3666 9.686L22.5533 7.49933C22.6813 7.37071 22.7826 7.21813 22.8516 7.0503C22.9205 6.88248 22.9557 6.70271 22.955 6.52128C22.9544 6.33985 22.918 6.16032 22.848 5.99297C22.7779 5.82562 22.6755 5.67373 22.5466 5.546Z" fill="#1A556D"/>
</g>
<defs>
<clipPath id="clip0_1577_13797">
<rect width="24" height="24" fill="white"/>
</clipPath>
</defs>
</svg>
