<svg width="40" height="40" viewBox="0 0 40 40" fill="none" xmlns="http://www.w3.org/2000/svg">
<g id="simple-line-icons:note" clip-path="url(#clip0_775_8709)">
<path id="Vector" d="M31.2246 37.5102H2.47461V6.26019H20.0371L22.5646 3.8252L22.4996 3.7602H2.47461C1.09398 3.7602 -0.0253906 4.87957 -0.0253906 6.26019V37.5102C-0.0253906 38.8908 1.09398 40.0102 2.47461 40.0102H31.2246C32.6052 40.0102 33.7246 38.8908 33.7246 37.5102V19.2033L31.2246 21.5896V37.5102ZM38.0559 1.6177C36.9277 0.536445 35.6828 -0.0117188 34.3546 -0.0117188C32.2759 -0.0117188 30.7596 1.33078 30.3471 1.74207C29.7621 2.31957 13.1921 18.8652 13.1921 18.8652C13.0621 18.9977 12.9671 19.1596 12.9184 19.3396C12.4696 20.9977 10.2203 28.3627 10.1978 28.4358C10.0815 28.8133 10.1853 29.2246 10.4634 29.499C10.5603 29.5962 10.6754 29.6734 10.8022 29.7259C10.929 29.7785 11.0649 29.8054 11.2022 29.8052C11.3097 29.8052 11.4178 29.7896 11.524 29.7565C11.6003 29.7309 19.1996 27.2733 20.4503 26.9002C20.6153 26.8515 20.7646 26.7621 20.8884 26.6415C21.6778 25.8627 36.9084 10.8684 38.1409 9.59523C39.4153 8.28023 40.049 6.91332 40.0246 5.52894C40.0015 4.16144 39.3365 2.84519 38.0559 1.6177ZM36.3453 7.85516C35.6496 8.57266 30.2027 13.9552 20.1559 23.8527L19.3871 24.6108C18.2352 24.967 15.4771 25.8533 13.3921 26.5258C14.0633 24.3089 14.8689 21.6308 15.2283 20.3639C17.3752 18.2202 31.5714 4.04582 32.1108 3.51332C32.2158 3.40828 33.1739 2.48766 34.3545 2.48766C35.0246 2.48766 35.6702 2.79328 36.3258 3.42203C37.1096 4.17391 37.5133 4.89641 37.5246 5.57141C37.5371 6.26641 37.1402 7.03453 36.3453 7.85516Z" fill="#1A556D"/>
</g>
<defs>
<clipPath id="clip0_775_8709">
<rect width="40" height="40" fill="white"/>
</clipPath>
</defs>
</svg>
