<svg width="32" height="32" viewBox="0 0 32 32" fill="none" xmlns="http://www.w3.org/2000/svg">
<g id="material-symbols:add-a-photo-outline-sharp">
<path id="Vector" d="M1 29.6667V8.33333H7.86667L10.3333 5.66667H18.3333V8.33333H11.5L9.06667 11H3.66667V27H25V15H27.6667V29.6667H1ZM25 11V8.33333H22.3333V5.66667H25V3H27.6667V5.66667H30.3333V8.33333H27.6667V11H25ZM14.3333 25C16 25 17.4169 24.4169 18.584 23.2507C19.7511 22.0844 20.3342 20.6676 20.3333 19C20.3324 17.3324 19.7493 15.916 18.584 14.7507C17.4187 13.5853 16.0018 13.0018 14.3333 13C12.6649 12.9982 11.2484 13.5818 10.084 14.7507C8.91956 15.9196 8.336 17.336 8.33333 19C8.33067 20.664 8.91422 22.0809 10.084 23.2507C11.2538 24.4204 12.6702 25.0036 14.3333 25ZM14.3333 22.3333C13.4 22.3333 12.6111 22.0111 11.9667 21.3667C11.3222 20.7222 11 19.9333 11 19C11 18.0667 11.3222 17.2778 11.9667 16.6333C12.6111 15.9889 13.4 15.6667 14.3333 15.6667C15.2667 15.6667 16.0556 15.9889 16.7 16.6333C17.3444 17.2778 17.6667 18.0667 17.6667 19C17.6667 19.9333 17.3444 20.7222 16.7 21.3667C16.0556 22.0111 15.2667 22.3333 14.3333 22.3333Z" fill="#1B556D"/>
</g>
</svg>
