<svg width="56" height="63" viewBox="0 0 56 63" xmlns="http://www.w3.org/2000/svg">
<path d="M51.8632 13.7926H53.7778V12.9769L53.2187 12.3976L51.8632 13.7926ZM40.3761 1.97037L41.7316 0.575348L41.1687 0H40.3761V1.97037ZM7.82906 19.7037V5.91111H4V19.7037H7.82906ZM49.9487 13.7926V19.7037H53.7778V13.7926H49.9487ZM9.74359 3.94074H40.3761V0H9.74359V3.94074ZM39.0206 3.36539L50.5078 15.1876L53.2187 12.3976L41.7316 0.575348L39.0206 3.36539ZM7.82906 5.91111C7.82906 5.38854 8.03077 4.88736 8.38981 4.51785C8.74886 4.14833 9.23582 3.94074 9.74359 3.94074V0C8.22029 0 6.75939 0.622776 5.68226 1.73132C4.60513 2.83987 4 4.34339 4 5.91111H7.82906ZM4 47.2889V53.2H7.82906V47.2889H4ZM9.74359 59.1111H48.0342V55.1704H9.74359V59.1111ZM53.7778 53.2V47.2889H49.9487V53.2H53.7778ZM48.0342 59.1111C49.5575 59.1111 51.0184 58.4883 52.0955 57.3798C53.1726 56.2712 53.7778 54.7677 53.7778 53.2H49.9487C49.9487 53.7226 49.747 54.2237 49.388 54.5933C49.0289 54.9628 48.542 55.1704 48.0342 55.1704V59.1111ZM4 53.2C4 54.7677 4.60513 56.2712 5.68226 57.3798C6.75939 58.4883 8.22029 59.1111 9.74359 59.1111V55.1704C9.23582 55.1704 8.74886 54.9628 8.38981 54.5933C8.03077 54.2237 7.82906 53.7226 7.82906 53.2H4Z" />
<path d="M26.1777 30.5586V31.2324C26.1777 32.3132 26.0312 33.2832 25.7383 34.1426C25.4453 35.002 25.0319 35.7344 24.498 36.3398C23.9642 36.9388 23.3262 37.3978 22.584 37.7168C21.8483 38.0358 21.0312 38.1953 20.1328 38.1953C19.2409 38.1953 18.4238 38.0358 17.6816 37.7168C16.946 37.3978 16.3079 36.9388 15.7676 36.3398C15.2272 35.7344 14.8073 35.002 14.5078 34.1426C14.2148 33.2832 14.0684 32.3132 14.0684 31.2324V30.5586C14.0684 29.4714 14.2148 28.5013 14.5078 27.6484C14.8008 26.7891 15.2142 26.0566 15.748 25.4512C16.2884 24.8457 16.9264 24.3835 17.6621 24.0645C18.4043 23.7454 19.2214 23.5859 20.1133 23.5859C21.0117 23.5859 21.8288 23.7454 22.5645 24.0645C23.3066 24.3835 23.9447 24.8457 24.4785 25.4512C25.0189 26.0566 25.4355 26.7891 25.7285 27.6484C26.028 28.5013 26.1777 29.4714 26.1777 30.5586ZM23.2188 31.2324V30.5391C23.2188 29.7839 23.1504 29.1198 23.0137 28.5469C22.877 27.974 22.6751 27.4922 22.4082 27.1016C22.1413 26.7109 21.8158 26.418 21.4316 26.2227C21.0475 26.0208 20.6081 25.9199 20.1133 25.9199C19.6185 25.9199 19.179 26.0208 18.7949 26.2227C18.4173 26.418 18.0951 26.7109 17.8281 27.1016C17.5677 27.4922 17.3691 27.974 17.2324 28.5469C17.0957 29.1198 17.0273 29.7839 17.0273 30.5391V31.2324C17.0273 31.9811 17.0957 32.6452 17.2324 33.2246C17.3691 33.7975 17.571 34.2826 17.8379 34.6797C18.1048 35.0703 18.4303 35.3665 18.8145 35.5684C19.1986 35.7702 19.638 35.8711 20.1328 35.8711C20.6276 35.8711 21.0671 35.7702 21.4512 35.5684C21.8353 35.3665 22.1576 35.0703 22.418 34.6797C22.6784 34.2826 22.877 33.7975 23.0137 33.2246C23.1504 32.6452 23.2188 31.9811 23.2188 31.2324ZM27.1152 36.6426C27.1152 36.2259 27.2585 35.8776 27.5449 35.5977C27.8379 35.3177 28.2253 35.1777 28.707 35.1777C29.1888 35.1777 29.5729 35.3177 29.8594 35.5977C30.1523 35.8776 30.2988 36.2259 30.2988 36.6426C30.2988 37.0592 30.1523 37.4076 29.8594 37.6875C29.5729 37.9674 29.1888 38.1074 28.707 38.1074C28.2253 38.1074 27.8379 37.9674 27.5449 37.6875C27.2585 37.4076 27.1152 37.0592 27.1152 36.6426ZM41.1973 33.2832H44.1172C44.0586 34.2402 43.7949 35.0898 43.3262 35.832C42.8639 36.5742 42.2161 37.1536 41.3828 37.5703C40.556 37.987 39.5599 38.1953 38.3945 38.1953C37.4831 38.1953 36.666 38.0391 35.9434 37.7266C35.2207 37.4076 34.6022 36.9518 34.0879 36.3594C33.5801 35.7669 33.1927 35.0508 32.9258 34.2109C32.6589 33.3711 32.5254 32.4303 32.5254 31.3887V30.4023C32.5254 29.3607 32.6621 28.4199 32.9355 27.5801C33.2155 26.7337 33.6126 26.0143 34.127 25.4219C34.6478 24.8294 35.2695 24.3737 35.9922 24.0547C36.7148 23.7357 37.5221 23.5762 38.4141 23.5762C39.599 23.5762 40.5983 23.791 41.4121 24.2207C42.2324 24.6504 42.8672 25.2428 43.3164 25.998C43.7721 26.7533 44.0456 27.6126 44.1367 28.5762H41.207C41.1745 28.0033 41.0605 27.5182 40.8652 27.1211C40.6699 26.7174 40.3737 26.4147 39.9766 26.2129C39.5859 26.0046 39.0651 25.9004 38.4141 25.9004C37.9258 25.9004 37.4993 25.9915 37.1348 26.1738C36.7702 26.3561 36.4642 26.6328 36.2168 27.0039C35.9694 27.375 35.7839 27.8438 35.6602 28.4102C35.543 28.9701 35.4844 29.6276 35.4844 30.3828V31.3887C35.4844 32.1243 35.5397 32.7721 35.6504 33.332C35.7611 33.8854 35.9303 34.3542 36.1582 34.7383C36.3926 35.1159 36.6921 35.4023 37.0566 35.5977C37.4277 35.7865 37.8737 35.8809 38.3945 35.8809C39.0065 35.8809 39.5111 35.7832 39.9082 35.5879C40.3053 35.3926 40.6081 35.1029 40.8164 34.7188C41.0312 34.3346 41.1582 33.8561 41.1973 33.2832Z" />
</svg>
