<svg width="56" height="57" viewBox="0 0 56 57" xmlns="http://www.w3.org/2000/svg">
<g clip-path="url(#clip0_735_10568)">
<path fill-rule="evenodd" clip-rule="evenodd" d="M18.7299 17.5099L18.0881 19.4957H16.1539C14.4402 19.4957 12.7967 20.1765 11.5849 21.3883C10.3732 22.6 9.69238 24.2436 9.69238 25.9573V38.8803C9.69238 40.5941 10.3732 42.2376 11.5849 43.4493C12.7967 44.6611 14.4402 45.3419 16.1539 45.3419H39.8462C41.5599 45.3419 43.2035 44.6611 44.4152 43.4493C45.627 42.2376 46.3078 40.5941 46.3078 38.8803V25.9573C46.3078 24.2436 45.627 22.6 44.4152 21.3883C43.2035 20.1765 41.5599 19.4957 39.8462 19.4957H37.9099L37.2702 17.5099C36.8502 16.2095 36.0288 15.0757 34.9239 14.2715C33.819 13.4673 32.4876 13.0341 31.121 13.0342H24.877C23.5104 13.0341 22.179 13.4673 21.0741 14.2715C19.9692 15.0757 19.1478 16.2095 18.7278 17.5099M16.1539 23.8034H21.2241L22.8287 18.8345C22.9686 18.4008 23.2425 18.0226 23.6109 17.7544C23.9794 17.4862 24.4234 17.3418 24.8792 17.3419H31.121C31.5764 17.3422 32.0199 17.4868 32.3879 17.755C32.756 18.0232 33.0295 18.4011 33.1693 18.8345L34.7739 23.8034H39.8462C40.4175 23.8034 40.9653 24.0303 41.3692 24.4343C41.7732 24.8382 42.0001 25.386 42.0001 25.9573V38.8803C42.0001 39.4516 41.7732 39.9994 41.3692 40.4033C40.9653 40.8073 40.4175 41.0342 39.8462 41.0342H16.1539C15.5827 41.0342 15.0348 40.8073 14.6309 40.4033C14.227 39.9994 14.0001 39.4516 14.0001 38.8803V25.9573C14.0001 25.386 14.227 24.8382 14.6309 24.4343C15.0348 24.0303 15.5827 23.8034 16.1539 23.8034Z"/>
<path fill-rule="evenodd" clip-rule="evenodd" d="M20.4619 31.3419C20.4619 33.3412 21.2561 35.2586 22.6699 36.6724C24.0836 38.0861 26.0011 38.8803 28.0004 38.8803C29.9997 38.8803 31.9171 38.0861 33.3309 36.6724C34.7446 35.2586 35.5388 33.3412 35.5388 31.3419C35.5388 29.3426 34.7446 27.4251 33.3309 26.0114C31.9171 24.5976 29.9997 23.8034 28.0004 23.8034C26.0011 23.8034 24.0836 24.5976 22.6699 26.0114C21.2561 27.4251 20.4619 29.3426 20.4619 31.3419ZM31.2311 31.3419C31.2311 32.1987 30.8908 33.0205 30.2849 33.6264C29.679 34.2323 28.8572 34.5727 28.0004 34.5727C27.1435 34.5727 26.3218 34.2323 25.7159 33.6264C25.11 33.0205 24.7696 32.1987 24.7696 31.3419C24.7696 30.485 25.11 29.6633 25.7159 29.0574C26.3218 28.4515 27.1435 28.1111 28.0004 28.1111C28.8572 28.1111 29.679 28.4515 30.2849 29.0574C30.8908 29.6633 31.2311 30.485 31.2311 31.3419Z"/>
<path fill-rule="evenodd" clip-rule="evenodd" d="M28 51.8034C41.0846 51.8034 51.6923 41.1957 51.6923 28.1111C51.6923 15.0265 41.0846 4.41881 28 4.41881C14.9154 4.41881 4.30769 15.0265 4.30769 28.1111C4.30769 41.1957 14.9154 51.8034 28 51.8034ZM28 56.1111C43.4646 56.1111 56 43.5757 56 28.1111C56 12.6465 43.4646 0.111115 28 0.111115C12.5354 0.111115 0 12.6465 0 28.1111C0 43.5757 12.5354 56.1111 28 56.1111Z"/>
</g>
<defs>
<clipPath id="clip0_735_10568">
<rect width="56" height="56" fill="white" transform="translate(0 0.111115)"/>
</clipPath>
</defs>
</svg>
