<svg width="16" height="16" viewBox="0 0 16 16" fill="none" xmlns="http://www.w3.org/2000/svg">
<g id="f7:shippingbox">
<path id="Vector" d="M2.34585 12.0646L7.50071 14.986C7.68414 15.0909 7.86414 15.1431 8.041 15.1431C8.21785 15.1431 8.40014 15.0909 8.58785 14.986L13.7364 12.0646C14.0376 11.89 14.2659 11.6923 14.4207 11.4717C14.5759 11.2514 14.6533 10.9074 14.6533 10.4403V5.25256C14.6533 4.91199 14.589 4.63028 14.4601 4.40771C14.3313 4.18485 14.1293 3.99285 13.8544 3.83114L9.21643 1.19799C8.82385 0.97085 8.433 0.857422 8.04443 0.857422C7.65585 0.857422 7.26271 0.97085 6.86528 1.19799L2.23443 3.83114C1.955 3.99285 1.75071 4.18485 1.62185 4.40771C1.49328 4.63028 1.42871 4.91199 1.42871 5.25256V10.4403C1.42871 10.9074 1.50728 11.2514 1.66443 11.4717C1.82157 11.6923 2.04871 11.89 2.34585 12.0646ZM2.93528 11.2C2.743 11.0909 2.60985 10.9763 2.53557 10.856C2.46128 10.736 2.42414 10.5866 2.42414 10.4074V5.46199L7.527 8.37685V13.8134L2.93528 11.2ZM13.1533 11.2L8.55528 13.8134V8.37685L13.6573 5.46199V10.4074C13.6573 10.5866 13.6201 10.736 13.5459 10.856C13.4716 10.976 13.341 11.0909 13.1533 11.2ZM8.04414 7.45999L2.98757 4.59742L5.01157 3.43828L10.0681 6.31371L8.04414 7.45999ZM11.1224 5.71771L6.04643 2.84856L7.30414 2.13456C7.80185 1.85085 8.29557 1.85085 8.78443 2.13456L13.101 4.59742L11.1224 5.71771Z" fill="#1A556D"/>
</g>
</svg>
