<svg width="16" height="17" viewBox="0 0 16 17" fill="none" xmlns="http://www.w3.org/2000/svg">
<g id="radix-icons:trash">
<path id="Vector" fill-rule="evenodd" clip-rule="evenodd" d="M5.86668 1.56641C5.72523 1.56641 5.58957 1.6226 5.48956 1.72262C5.38954 1.82264 5.33335 1.95829 5.33335 2.09974C5.33335 2.24119 5.38954 2.37684 5.48956 2.47686C5.58957 2.57688 5.72523 2.63307 5.86668 2.63307H10.1333C10.2748 2.63307 10.4105 2.57688 10.5105 2.47686C10.6105 2.37684 10.6667 2.24119 10.6667 2.09974C10.6667 1.95829 10.6105 1.82264 10.5105 1.72262C10.4105 1.6226 10.2748 1.56641 10.1333 1.56641H5.86668ZM3.20001 4.23307C3.20001 4.09162 3.2562 3.95597 3.35622 3.85595C3.45624 3.75593 3.5919 3.69974 3.73335 3.69974H12.2667C12.4081 3.69974 12.5438 3.75593 12.6438 3.85595C12.7438 3.95597 12.8 4.09162 12.8 4.23307C12.8 4.37452 12.7438 4.51018 12.6438 4.6102C12.5438 4.71022 12.4081 4.76641 12.2667 4.76641H11.7333V13.2997C11.7333 13.5826 11.621 13.8539 11.4209 14.054C11.2209 14.254 10.9496 14.3664 10.6667 14.3664H5.33335C5.05045 14.3664 4.77914 14.254 4.5791 14.054C4.37906 13.8539 4.26668 13.5826 4.26668 13.2997V4.76641H3.73335C3.5919 4.76641 3.45624 4.71022 3.35622 4.6102C3.2562 4.51018 3.20001 4.37452 3.20001 4.23307ZM5.33335 4.76641H10.6667V13.2997H5.33335V4.76641Z" fill="#BF1231"/>
</g>
</svg>
