<svg width="24" height="24" viewBox="0 0 24 24" fill="none" xmlns="http://www.w3.org/2000/svg">
<g id="healthicons:truck-driver" clip-path="url(#clip0_683_2916)">
<g id="Group">
<path id="Vector" fill-rule="evenodd" clip-rule="evenodd" d="M4.09755 3.80488C4.09755 3.54908 6.74106 1.7561 9.36584 1.7561C11.9906 1.7561 14.6341 3.54908 14.6341 3.80488C14.6341 4.71805 14.537 5.25893 14.455 5.55337C14.4006 5.74654 14.2197 5.85366 14.0189 5.85366H4.71277C4.51199 5.85366 4.33111 5.74654 4.27667 5.55337C4.19472 5.25893 4.09755 4.71805 4.09755 3.80488ZM8.48779 3.5122C8.33254 3.5122 8.18365 3.57387 8.07387 3.68365C7.9641 3.79342 7.90242 3.94231 7.90242 4.09756C7.90242 4.25281 7.9641 4.4017 8.07387 4.51148C8.18365 4.62126 8.33254 4.68293 8.48779 4.68293H10.2439C10.3991 4.68293 10.548 4.62126 10.6578 4.51148C10.7676 4.4017 10.8293 4.25281 10.8293 4.09756C10.8293 3.94231 10.7676 3.79342 10.6578 3.68365C10.548 3.57387 10.3991 3.5122 10.2439 3.5122H8.48779ZM4.70516 9.49347C2.75589 8.89054 3.2476 7.81347 3.99101 7.02439H14.9034C15.4981 7.7842 15.8172 8.80917 14.0195 9.42264C14.039 9.59629 14.0488 9.77249 14.0488 9.95122C14.0485 10.5853 13.9195 11.2128 13.6695 11.7955C13.4195 12.3783 13.0538 12.9042 12.5945 13.3414C12.1352 13.7786 11.5918 14.1179 10.9975 14.3388C10.4031 14.5598 9.77004 14.6577 9.13669 14.6267C8.50334 14.5956 7.88289 14.4363 7.31296 14.1583C6.74303 13.8804 6.23549 13.4895 5.82112 13.0095C5.40674 12.5296 5.09416 11.9704 4.90234 11.366C4.71051 10.7616 4.64343 10.1246 4.70516 9.49347ZM9.20662 9.95122C10.7532 9.95122 11.952 9.86927 12.871 9.72644C12.8757 9.80059 12.878 9.87551 12.878 9.95122C12.8776 10.4199 12.7834 10.8839 12.6009 11.3156C12.4184 11.7473 12.1513 12.1382 11.8154 12.4651C11.4795 12.792 11.0815 13.0484 10.645 13.2191C10.2085 13.3898 9.74218 13.4714 9.27362 13.4591C8.80505 13.4468 8.34369 13.3408 7.91672 13.1474C7.48974 12.954 7.1058 12.6771 6.78752 12.333C6.46924 11.9889 6.22305 11.5846 6.06347 11.1439C5.90388 10.7031 5.83413 10.2349 5.85833 9.76683C6.71472 9.88507 7.81228 9.95122 9.20662 9.95122ZM14.2929 18.4976C13.7635 17.6714 13.0347 16.9918 12.1737 16.5212C11.3126 16.0506 10.3471 15.8043 9.36584 15.8049C8.38422 15.8041 7.4182 16.0505 6.55684 16.5213C5.69548 16.9921 4.96649 17.6721 4.43706 18.4987C4.24013 18.1965 3.93849 17.9776 3.59003 17.8841L2.45911 17.5815C2.08426 17.481 1.68485 17.5335 1.34872 17.7275C1.01259 17.9214 0.767267 18.241 0.666717 18.6158L0.212473 20.3122C0.162724 20.4978 0.150031 20.6915 0.175118 20.882C0.200205 21.0726 0.262582 21.2563 0.358686 21.4228C0.45479 21.5892 0.582738 21.7351 0.735224 21.8521C0.887711 21.9691 1.06175 22.0549 1.2474 22.1046L2.37774 22.4078C2.5679 22.4587 2.76638 22.4708 2.96131 22.4432C3.15624 22.4157 3.3436 22.3491 3.51218 22.2474C3.51265 22.4027 3.57477 22.5514 3.68487 22.6608C3.79498 22.7703 3.94405 22.8315 4.0993 22.831C4.25455 22.8306 4.40326 22.7684 4.51271 22.6583C4.62215 22.5482 4.68338 22.3992 4.68291 22.2439V21.6585C4.68291 21.4353 4.69813 21.2162 4.72857 21.0012L7.77482 21.8178C7.91622 22.1204 8.14102 22.3765 8.42283 22.5559C8.70464 22.7353 9.03178 22.8305 9.36584 22.8305C9.6999 22.8305 10.027 22.7353 10.3089 22.5559C10.5907 22.3765 10.8155 22.1204 10.9569 21.8178L14.0031 21.0012C14.0332 21.2162 14.0484 21.4353 14.0488 21.6585V22.2439C14.048 22.3992 14.1089 22.5484 14.2181 22.6587C14.3274 22.769 14.476 22.8314 14.6312 22.8322C14.7865 22.833 14.9357 22.772 15.046 22.6628C15.1563 22.5536 15.2187 22.405 15.2195 22.2498C15.5473 22.4464 15.9524 22.5149 16.351 22.4078L17.4819 22.1052C17.6676 22.0554 17.8416 21.9696 17.9941 21.8526C18.1466 21.7357 18.2745 21.5898 18.3707 21.4233C18.4668 21.2569 18.5291 21.0732 18.5542 20.8826C18.5793 20.6921 18.5666 20.4984 18.5169 20.3128L18.062 18.6164C17.9615 18.2416 17.7162 17.922 17.38 17.728C17.0439 17.5341 16.6445 17.4816 16.2696 17.5821L15.1387 17.8847C14.7911 17.9778 14.4899 18.1964 14.2929 18.4976ZM5.03589 19.8708C5.35228 19.1063 5.86536 18.439 6.52304 17.9369C7.18072 17.4348 7.95956 17.1157 8.78047 17.0119V19.4172C8.51797 19.5099 8.28129 19.6638 8.08995 19.866C7.89861 20.0682 7.75809 20.3131 7.67999 20.5803L5.03589 19.8708ZM13.6958 19.8708C13.3794 19.1063 12.8663 18.439 12.2086 17.9369C11.551 17.4348 10.7721 17.1157 9.95121 17.0119V19.4172C10.4804 19.6045 10.8936 20.0377 11.0517 20.5803L13.6958 19.8708ZM9.36584 21.6585C9.52109 21.6585 9.66998 21.5969 9.77976 21.4871C9.88953 21.3773 9.95121 21.2284 9.95121 21.0732C9.95121 20.9179 9.88953 20.769 9.77976 20.6593C9.66998 20.5495 9.52109 20.4878 9.36584 20.4878C9.21059 20.4878 9.0617 20.5495 8.95192 20.6593C8.84215 20.769 8.78047 20.9179 8.78047 21.0732C8.78047 21.2284 8.84215 21.3773 8.95192 21.4871C9.0617 21.5969 9.21059 21.6585 9.36584 21.6585Z" fill="#FAFDFD"/>
</g>
<path id="Vector_2" d="M24 6.43902H20.4878V9.95122H19.3171V6.43902H15.8049V5.26829H19.3171V1.7561H20.4878V5.26829H24V6.43902Z" fill="#FAFDFD"/>
</g>
<defs>
<clipPath id="clip0_683_2916">
<rect width="24" height="24" fill="white"/>
</clipPath>
</defs>
</svg>
