<svg width="40" height="40" viewBox="0 0 40 40" fill="none" xmlns="http://www.w3.org/2000/svg">
<g id="ic:round-whatsapp">
<path id="Vector" d="M31.7503 8.18213C30.2223 6.63867 28.4023 5.41491 26.3964 4.58222C24.3905 3.74952 22.2389 3.32456 20.067 3.33213C10.967 3.33213 3.55033 10.7488 3.55033 19.8488C3.55033 22.7655 4.31699 25.5988 5.75033 28.0988L3.41699 36.6655L12.167 34.3655C14.5837 35.6821 17.3003 36.3821 20.067 36.3821C29.167 36.3821 36.5837 28.9655 36.5837 19.8655C36.5837 15.4488 34.867 11.2988 31.7503 8.18213ZM20.067 33.5821C17.6003 33.5821 15.1837 32.9155 13.067 31.6655L12.567 31.3655L7.36699 32.7321L8.75033 27.6655L8.41699 27.1488C7.04657 24.9604 6.31889 22.4309 6.31699 19.8488C6.31699 12.2821 12.4837 6.11546 20.0503 6.11546C23.717 6.11546 27.167 7.5488 29.7503 10.1488C31.0295 11.4221 32.0432 12.9366 32.7326 14.6045C33.4221 16.2724 33.7737 18.0606 33.767 19.8655C33.8003 27.4321 27.6337 33.5821 20.067 33.5821ZM27.6003 23.3155C27.1837 23.1155 25.1503 22.1155 24.7837 21.9655C24.4003 21.8321 24.1337 21.7655 23.8503 22.1655C23.567 22.5821 22.7837 23.5155 22.5503 23.7821C22.317 24.0655 22.067 24.0988 21.6503 23.8821C21.2337 23.6821 19.9003 23.2321 18.3337 21.8321C17.1003 20.7321 16.2837 19.3821 16.0337 18.9655C15.8003 18.5488 16.0003 18.3321 16.217 18.1155C16.4003 17.9321 16.6337 17.6321 16.8337 17.3988C17.0337 17.1655 17.117 16.9821 17.2503 16.7155C17.3837 16.4321 17.317 16.1988 17.217 15.9988C17.117 15.7988 16.2837 13.7655 15.9503 12.9321C15.617 12.1321 15.267 12.2321 15.017 12.2155H14.217C13.9337 12.2155 13.5003 12.3155 13.117 12.7321C12.7503 13.1488 11.6837 14.1488 11.6837 16.1821C11.6837 18.2155 13.167 20.1821 13.367 20.4488C13.567 20.7321 16.2837 24.8988 20.417 26.6821C21.4003 27.1155 22.167 27.3655 22.767 27.5488C23.7503 27.8655 24.6503 27.8155 25.367 27.7155C26.167 27.5988 27.817 26.7155 28.1503 25.7488C28.5003 24.7821 28.5003 23.9655 28.3837 23.7821C28.267 23.5988 28.017 23.5155 27.6003 23.3155Z" fill="#1A556D"/>
</g>
</svg>
